# xmcd
#
# Track frame offsets:
#	150
#	18582
#	35174
#	50332
#	67629
#	84941
#	107716
#	119632
#	137440
#	152299
#	175636
#	192483
#	207216
#	223772
#
# Disc length: 3269 seconds
#
# Revision: 1
# Processed by: cddbd v1.5.2PL0 Copyright (c) Steve Scherf et al.
# Submitted via: audiograbber 1.83.01
#
DISCID=b90cc30e
DTITLE=Bill Adams - Moving To A Better Land
DYEAR=1994
DGENRE=Gospel
TTITLE0=Moving To A Better Land
TTITLE1=Greater Than All Of These
TTITLE2=I Need Jesus
TTITLE3=Mercy Met Grace
TTITLE4=What's Wrong With Living Right
TTITLE5=Hope Time Flies
TTITLE6=More Than A Babe
TTITLE7=Covered By The Blood
TTITLE8=Force And Matter
TTITLE9=The Long Good Bye
TTITLE10=Jesus Is His Name
TTITLE11=Would You Make It In
TTITLE12=Down At The Well
TTITLE13=The Prodigal
EXTD=
EXTT0=
EXTT1=
EXTT2=
EXTT3=
EXTT4=
EXTT5=
EXTT6=
EXTT7=
EXTT8=
EXTT9=
EXTT10=
EXTT11=
EXTT12=
EXTT13=
PLAYORDER=
